<?xml version="1.0"?>
<!DOCTYPE svg PUBLIC "-//W3C//DTD SVG 1.1//EN" "http://www.w3.org/Graphics/SVG/1.1/DTD/svg11.dtd">
<svg width="205.12171618205193mm" height="109.4474930989202mm" viewBox="0 0 205.12171618205193 109.4474930989202" xmlns="http://www.w3.org/2000/svg" version="1.1">
<g id="Sketch006" transform="translate(76.134716,45.510997) scale(1,-1)">
<path id="Sketch006_w0000"  d="M -9.0 25.5 L -9.0 -25.5 L 9.0 -25.5 L 9.0 25.5 L -9.0 25.5 " stroke="#000000" stroke-width="0.35 px" style="stroke-width:0.35;stroke-miterlimit:4;stroke-dasharray:none;stroke-linecap:square;fill:none;fill-opacity:1;fill-rule: evenodd"/>
<path id="Sketch006_w0001"  d="M -44.502681548583425 -32.756169855526295 L -48.947624428714015 18.04975974715273 L -31.016119863062578 19.61856311661059 L -13.084615297411146 21.18736648606844 L -8.639672417280575 -29.618563116610588 L -44.502681548583425 -32.756169855526295 " stroke="#000000" stroke-width="0.35 px" style="stroke-width:0.35;stroke-miterlimit:4;stroke-dasharray:none;stroke-linecap:square;fill:none;fill-opacity:1;fill-rule: evenodd"/>
<path id="Sketch006_w0002"  d="M -20.44852087864469 -30.846020989393057 L -37.835185751847916 -35.504763801238425 L -33.435261985105065 -51.92550284815259 L -50.43526198510506 -22.48063911948167 L -66.02371925322495 -31.480639119481665 L -49.02371925322497 -60.92550284815258 L -33.435261985105065 -51.92550284815259 L -16.048597111901838 -47.26676003630722 L -16.048597111901838 -30.26676003630722 L 1.951402888098162 -30.26676003630722 L 1.951402888098162 -47.26676003630722 L -16.048597111901838 -47.26676003630722 L -20.44852087864469 -30.846020989393057 " stroke="#000000" stroke-width="0.35 px" style="stroke-width:0.35;stroke-miterlimit:4;stroke-dasharray:none;stroke-linecap:square;fill:none;fill-opacity:1;fill-rule: evenodd"/>
<path id="Sketch006_w0003"  d="M -68.34096429013988 -15.267052981958201 L -67.51353905243272 -14.789338798233684 A 1 1 0 0 1 -67.0173 -13.8362L -69.64855025506048 16.23866341285638 A 1 1 0 0 0 -68.7395 17.322L -49.03478017146167 19.045954445244476 A 1 1 0 0 1 -49.9438 17.9626L -47.06593650127806 -14.931744926584367 A 1 1 0 0 0 -47.975 -16.0151L -64.28770126917459 -17.442273947228834 A 1 1 0 0 1 -65.0666 -18.9385L -60.87493888635544 -26.198588311912793 A 1 1 0 0 0 -61.241 -27.5646L -66.52371925322495 -30.614613715697224 A 1 1 0 0 1 -66.8897 -31.9806L -73.9897446570094 -19.683078385742636 A 1 1 0 0 0 -73.6237 -18.3171L -68.34096429013988 -15.267052981958201 M -68.34096429013988 -15.267052981958201 L -61.74096429013988 -26.698588311912793 L -67.02371925322495 -29.74858831191279 L -73.62371925322495 -18.317052981958202 L -73.12371925322495 -19.18307838574264 " stroke="#000000" stroke-width="0.35 px" style="stroke-width:0.35;stroke-miterlimit:4;stroke-dasharray:none;stroke-linecap:square;fill:none;fill-opacity:1;fill-rule: evenodd"/>
<path id="Sketch006_w0004"  d="M -68.65235555696874 16.325819155604037 L -50.940013824897505 17.87544826165741 L -48.06213119936981 -15.018900669332027 L -65.77447293144105 -16.5685297753854 L -68.65235555696874 16.325819155604037 " stroke="#000000" stroke-width="0.35 px" style="stroke-width:0.35;stroke-miterlimit:4;stroke-dasharray:none;stroke-linecap:square;fill:none;fill-opacity:1;fill-rule: evenodd"/>
<title>b'side_inner'</title>
</g>
<g id="Sketch" transform="translate(76.134716,45.510997) scale(1,-1)">
<path id="Sketch_w0000"  d="M -9.0 8.5 L 9.0 8.5 L 9.0 -8.5 L -9.0 -8.5 L 9.0 -8.5 L 9.0 -25.5 L -9.0 -25.5 L -9.0 -8.5 L -9.0 8.5 M -9.0 8.5 L 9.0 8.5 L 9.0 25.5 L -9.0 25.5 L 9.0 25.5 L 9.0 42.5 L -9.0 42.5 L -9.0 25.5 L -9.0 8.5 " stroke="#000000" stroke-width="0.35 px" style="stroke-width:0.35;stroke-miterlimit:4;stroke-dasharray:none;stroke-linecap:square;fill:none;fill-opacity:1;fill-rule: evenodd"/>
<path id="Sketch_w0001"  d="M -32.49776748977275 36.55387298417026 L -31.01611986306256 19.618563116610584 L -13.08461529741114 21.187366486068434 L -14.56626292412133 38.12267635362811 L -32.49776748977275 36.55387298417026 L -50.429272055424164 34.98506961471241 L -48.94762442871398 18.049759747152738 L -47.46597680200379 1.114449879593064 L -45.9843291752936 -15.82085998796661 L -28.05282460964218 -14.252056618508764 L -26.57117698293199 -31.187366486068438 L -8.639672417280574 -29.618563116610588 L -10.121320043990764 -12.683253249050916 L -28.05282460964218 -14.252056618508764 L -29.534472236352368 2.683253249050911 L -47.46597680200379 1.114449879593064 M -13.08461529741114 21.187366486068434 L -11.602967670700952 4.2520566185087585 L -29.534472236352368 2.683253249050911 L -31.01611986306256 19.618563116610584 L -48.94762442871398 18.049759747152738 M -11.602967670700952 4.252056618508758 L -10.121320043990764 -12.683253249050916 M -26.571176982931988 -31.187366486068438 L -44.50268154858341 -32.75616985552628 L -45.9843291752936 -15.82085998796661 " stroke="#000000" stroke-width="0.35 px" style="stroke-width:0.35;stroke-miterlimit:4;stroke-dasharray:none;stroke-linecap:square;fill:none;fill-opacity:1;fill-rule: evenodd"/>
<path id="Sketch_w0002"  d="M 13.08461529741113 21.187366486068434 L 11.602967670700945 4.25205661850876 L 29.534472236352368 2.683253249050917 L 31.01611986306255 19.61856311661059 L 32.497767489772734 36.55387298417027 L 14.566262924121315 38.12267635362811 L 13.08461529741113 21.187366486068434 L 31.01611986306255 19.61856311661059 M 29.534472236352368 2.683253249050917 L 28.052824609642183 -14.252056618508757 L 10.12132004399076 -12.683253249050914 L 11.602967670700945 4.25205661850876 M 28.052824609642183 -14.252056618508757 L 26.571176982932 -31.18736648606843 L 8.639672417280575 -29.618563116610588 L 10.12132004399076 -12.683253249050914 " stroke="#000000" stroke-width="0.35 px" style="stroke-width:0.35;stroke-miterlimit:4;stroke-dasharray:none;stroke-linecap:square;fill:none;fill-opacity:1;fill-rule: evenodd"/>
<path id="Sketch_w0003"  d="M 84.18640292758478 -49.14421413368823 L 66.25489836193144 -47.57541076423023 L 67.73654598864178 -30.640100896668738 L 85.66805055429512 -32.208904266126744 L 87.14969818100546 -15.273594398565255 L 105.08120274665879 -16.84239776802326 L 103.59955511994846 -33.77770763558475 L 121.5310596856018 -35.34651100504275 L 120.04941205889146 -52.281820872604236 L 102.11790749323812 -50.71301750314623 L 84.18640292758478 -49.14421413368823 L 85.66805055429512 -32.208904266126744 L 103.59955511994846 -33.77770763558475 L 102.11790749323812 -50.71301750314623 M 123.01270731231213 -18.411201137481264 L 105.08120274665879 -16.84239776802326 L 106.56285037336913 0.09291209953822599 L 124.49435493902247 -1.475891269919778 L 123.01270731231213 -18.411201137481264 L 121.5310596856018 -35.34651100504275 M 63.32543180775842 -30.05936669761227 L 60.3734127874203 -46.8010984988216 L 42.646873233198654 -43.67543130081653 L 45.598892253536775 -26.933699499607197 L 63.32543180775842 -30.05936669761227 L 66.27745082809655 -13.317634896402943 L 69.22946984843468 3.42409690480639 L 72.18148886877279 20.16582870601572 L 90.11299343442613 18.597025336557717 L 108.04449800007947 17.028221967099714 L 125.97600256573281 15.459418597641708 L 124.49435493902247 -1.475891269919778 M 108.04449800007947 17.028221967099714 L 106.56285037336913 0.092912099538225 L 88.63134580771579 1.661715468996231 L 70.69984124206246 3.230518838454234 L 72.18148886877279 20.16582870601572 L 54.45494931455115 23.291495904020792 L 51.50293029421302 6.549764102811462 L 69.22946984843468 3.4240969048063903 M 90.11299343442613 18.597025336557717 L 88.63134580771579 1.661715468996231 L 87.14969818100546 -15.273594398565255 L 69.21819361535212 -13.704791029107252 L 70.69984124206246 3.230518838454234 M 69.21819361535212 -13.704791029107252 L 67.73654598864178 -30.640100896668738 M 30.824371719653257 -7.0663005003927974 L 48.5509112738749 -10.191967698397871 L 45.598892253536775 -26.933699499607197 L 27.872352699315133 -23.808032301602125 L 30.824371719653257 -7.0663005003927974 L 33.776390739991385 9.675431300816534 L 51.50293029421302 6.549764102811462 L 48.5509112738749 -10.191967698397871 L 66.27745082809655 -13.317634896402943 M 42.646873233198654 -43.67543130081653 L 24.92033367897701 -40.54976410281146 L 27.872352699315133 -23.808032301602125 M 54.45494931455115 23.291495904020792 L 36.728409760329505 26.417163102025867 L 33.776390739991385 9.675431300816534 " stroke="#000000" stroke-width="0.35 px" style="stroke-width:0.35;stroke-miterlimit:4;stroke-dasharray:none;stroke-linecap:square;fill:none;fill-opacity:1;fill-rule: evenodd"/>
<path id="Sketch_w0004"  d="M -57.52371925322493 -46.20307098381712 L -49.02371925322493 -60.92550284815258 L -33.435261985105036 -51.92550284815259 L -16.048597111901802 -47.26676003630722 L -20.448520878644654 -30.84602098939305 L -37.83518575184789 -35.504763801238425 L -33.435261985105036 -51.92550284815259 L -41.93526198510503 -37.20307098381713 L -50.43526198510503 -22.480639119481665 L -66.02371925322493 -31.480639119481665 L -57.52371925322493 -46.20307098381712 L -41.93526198510503 -37.20307098381713 M -16.048597111901802 -47.26676003630722 L -16.048597111901802 -30.266760036307215 L 1.951402888098198 -30.266760036307215 L 1.9514028880981982 -47.26676003630722 L -16.048597111901802 -47.26676003630722 " stroke="#000000" stroke-width="0.35 px" style="stroke-width:0.35;stroke-miterlimit:4;stroke-dasharray:none;stroke-linecap:square;fill:none;fill-opacity:1;fill-rule: evenodd"/>
<title>b'grid'</title>
</g>
<g id="Sketch002" transform="translate(76.134716,45.510997) scale(1,-1)">
<path id="Sketch002_w0000"  d="M -9.0 25.5 L -9.0 -25.5 L 9.0 -25.5 L 9.0 25.5 L -9.0 25.5 " stroke="#000000" stroke-width="0.35 px" style="stroke-width:0.35;stroke-miterlimit:4;stroke-dasharray:none;stroke-linecap:square;fill:none;fill-opacity:1;fill-rule: evenodd"/>
<path id="Sketch002_w0001"  d="M 13.084615297411151 21.187366486068434 L 8.639672417280572 -29.618563116610588 L 26.571176982931995 -31.187366486068438 L 31.01611986306257 19.618563116610584 L 13.084615297411151 21.187366486068434 M 31.01611986306257 19.618563116610584 L 31.263794495492863 22.44949711935621 A 256 256 0 0 1 -22.3118 23.3915L -49.20909165695696 21.038343841427974 L -48.94762442871398 18.049759747152738 L -44.50268154858341 -32.756169855526295 L -8.639672417280575 -29.618563116610588 L -13.084615297411144 21.187366486068434 L -48.94762442871398 18.049759747152738 " stroke="#000000" stroke-width="0.35 px" style="stroke-width:0.35;stroke-miterlimit:4;stroke-dasharray:none;stroke-linecap:square;fill:none;fill-opacity:1;fill-rule: evenodd"/>
<path id="Sketch002_w0002"  d="M 72.18148886877078 20.165828706011716 L 60.373412787419504 -46.801098498818426 L 24.920333678980008 -40.54976410280892 L 36.72840976033129 26.417163102021217 L 72.18148886877078 20.165828706011716 L 72.35513704643776 21.150636459024216 L 36.90205793799821 27.401970855033426 A 1 1 0 0 1 35.7436 26.5908L 34.748429938838 20.946910020320058 A 1 1 0 0 0 33.6312 20.1294A 254 254 0 0 1 -22.1375 21.3992L -49.034780171461655 19.045954445244462 " stroke="#000000" stroke-width="0.35 px" style="stroke-width:0.35;stroke-miterlimit:4;stroke-dasharray:none;stroke-linecap:square;fill:none;fill-opacity:1;fill-rule: evenodd"/>
<path id="Sketch002_w0003"  d="M -10.956862676514303 22.129269734109023 A 1 1 0 0 1 -10 23.1283L -9.999999999999998 25.5 A 1 1 0 0 0 -9 26.5L 9.0 26.5 A 1 1 0 0 0 10 25.5L 10.0 23.12833888653166 A 1 1 0 0 1 10.9569 22.1293" stroke="#000000" stroke-width="0.35 px" style="stroke-width:0.35;stroke-miterlimit:4;stroke-dasharray:none;stroke-linecap:square;fill:none;fill-opacity:1;fill-rule: evenodd"/>
<path id="Sketch002_w0004"  d="M 3.0 26.5 A 1 1 0 0 0 3 28.5L 11.0 28.5 A 1 1 0 0 0 12 27.5L 12.0 25.036699756183978 A 1 1 0 0 1 12.9494 24.038" stroke="#000000" stroke-width="0.35 px" style="stroke-width:0.35;stroke-miterlimit:4;stroke-dasharray:none;stroke-linecap:square;fill:none;fill-opacity:1;fill-rule: evenodd"/>
<path id="Sketch002_w0005"  d="M -3.0 26.5 A 1 1 0 1 1 -3 28.5L -11.000000000000004 28.5 A 1 1 0 0 1 -12 27.5L -12.000000000000004 25.036699756184003 A 1 1 0 0 0 -12.9494 24.038" stroke="#000000" stroke-width="0.35 px" style="stroke-width:0.35;stroke-miterlimit:4;stroke-dasharray:none;stroke-linecap:square;fill:none;fill-opacity:1;fill-rule: evenodd"/>
<path id="Sketch002_w0006"  d="M -37.254755279856006 22.08421275439987 A 1 1 0 1 1 -37.0804 20.0918" stroke="#000000" stroke-width="0.35 px" style="stroke-width:0.35;stroke-miterlimit:4;stroke-dasharray:none;stroke-linecap:square;fill:none;fill-opacity:1;fill-rule: evenodd"/>
<path id="Sketch002_w0007"  d="M -43.05761198291116 19.568888901730414 A 1 1 0 1 1 -43.2319 21.5613" stroke="#000000" stroke-width="0.35 px" style="stroke-width:0.35;stroke-miterlimit:4;stroke-dasharray:none;stroke-linecap:square;fill:none;fill-opacity:1;fill-rule: evenodd"/>
<path id="Sketch002_w0008"  d="M -25.126107417259753 21.13769227118826 A 1 1 0 0 1 -25.3004 23.1301" stroke="#000000" stroke-width="0.35 px" style="stroke-width:0.35;stroke-miterlimit:4;stroke-dasharray:none;stroke-linecap:square;fill:none;fill-opacity:1;fill-rule: evenodd"/>
<path id="Sketch002_w0009"  d="M -19.31005591014084 23.636386760143875 A 1 1 0 0 1 -19.1592 21.6421" stroke="#000000" stroke-width="0.35 px" style="stroke-width:0.35;stroke-miterlimit:4;stroke-dasharray:none;stroke-linecap:square;fill:none;fill-opacity:1;fill-rule: evenodd"/>
<path id="Sketch002_w0010"  d="M 19.15914430385701 21.64208846505784 A 1 1 0 1 1 19.31 23.6364" stroke="#000000" stroke-width="0.35 px" style="stroke-width:0.35;stroke-miterlimit:4;stroke-dasharray:none;stroke-linecap:square;fill:none;fill-opacity:1;fill-rule: evenodd"/>
<path id="Sketch002_w0011"  d="M 25.31057744405163 23.111408535291073 A 1 1 0 1 1 25.1128 21.1212" stroke="#000000" stroke-width="0.35 px" style="stroke-width:0.35;stroke-miterlimit:4;stroke-dasharray:none;stroke-linecap:square;fill:none;fill-opacity:1;fill-rule: evenodd"/>
<title>b'mid'</title>
</g>
<g id="Sketch003" transform="translate(76.134716,45.510997) scale(1,-1)">
<path id="Sketch003_w0000"  d="M -9.0 -25.5 L 9.0 -25.5 L 9.0 25.5 " stroke="#000000" stroke-width="0.35 px" style="stroke-width:0.35;stroke-miterlimit:4;stroke-dasharray:none;stroke-linecap:square;fill:none;fill-opacity:1;fill-rule: evenodd"/>
<path id="Sketch003_w0001"  d="M 26.57117693935412 -31.18736698416578 L 8.639672373702705 -29.618563614707934 L 13.084615340989014 21.18736698416578 L 31.016119906640437 19.618563614707934 L 26.57117693935412 -31.18736698416578 " stroke="#000000" stroke-width="0.35 px" style="stroke-width:0.35;stroke-miterlimit:4;stroke-dasharray:none;stroke-linecap:square;fill:none;fill-opacity:1;fill-rule: evenodd"/>
<path id="Sketch003_w0002"  d="M 72.18148891302091 20.165828706011716 L 60.37341283166963 -46.801098498818426 L 24.920333723230144 -40.54976410280893 L 36.72840980458142 26.417163102021213 L 72.18148891302091 20.165828706011716 L 125.97600260997517 15.45941859763817 L 120.0494121031344 -52.28182087260053 " stroke="#000000" stroke-width="0.35 px" style="stroke-width:0.35;stroke-miterlimit:4;stroke-dasharray:none;stroke-linecap:square;fill:none;fill-opacity:1;fill-rule: evenodd"/>
<path id="Sketch003_w0003"  d="M 72.26914182052755 21.165799745353254 A 1 1 0 0 1 72.3556 21.1544L 76.26864465576857 20.812068749986523 A 1 1 0 0 1 75.1967 19.9895L 75.13591217205988 19.644884173010926 L 74.91885194986462 18.413874481764974 A 1 1 0 0 0 72.9492 18.7612M 76.26864465576857 20.812068749986523 L 126.06315323646015 16.45561374333166 A 1 1 0 0 0 126.972 15.3723L 121.04560680122614 -52.368976615348174 A 1 1 0 0 0 119.962 -53.278L 66.16774266343249 -48.57160546231872 A 69 69 0 0 0 60.1998 -47.7859A 1 1 0 0 1 61.3582 -46.9747L 64.31023960501646 -30.23301487527721 L 67.26225862535108 -13.491283074069106 L 70.21427764568568 3.2504487271389984 L 73.16629666602029 19.9921805283471 A 1 1 0 0 1 72.3551 21.1506L 36.90205798224835 27.40197085502019 " stroke="#000000" stroke-width="0.35 px" style="stroke-width:0.35;stroke-miterlimit:4;stroke-dasharray:none;stroke-linecap:square;fill:none;fill-opacity:1;fill-rule: evenodd"/>
<path id="Sketch003_w0004"  d="M 64.21767312391637 -48.3730481309865 A 1 1 0 0 0 63.3483 -47.2061L 64.28290115699043 -41.905599884843745 A 1 1 0 1 1 62.3133 -41.5583" stroke="#000000" stroke-width="0.35 px" style="stroke-width:0.35;stroke-miterlimit:4;stroke-dasharray:none;stroke-linecap:square;fill:none;fill-opacity:1;fill-rule: evenodd"/>
<path id="Sketch003_w0005"  d="M 69.91039333476874 1.5270351593666585 A 1 1 0 1 1 71.88 1.17974L 72.18389315171972 2.903152371803439 L 73.26919426212689 9.05820082812974 A 1 1 0 0 1 71.2996 9.4055" stroke="#000000" stroke-width="0.35 px" style="stroke-width:0.35;stroke-miterlimit:4;stroke-dasharray:none;stroke-linecap:square;fill:none;fill-opacity:1;fill-rule: evenodd"/>
<path id="Sketch003_w0006"  d="M 66.95837431443424 -15.214696641840717 A 1 1 0 0 1 68.928 -15.562L 69.23187413138189 -13.838579429404096 L 70.66447148033285 -5.713916129418209 A 1 1 0 1 1 68.6949 -5.36662" stroke="#000000" stroke-width="0.35 px" style="stroke-width:0.35;stroke-miterlimit:4;stroke-dasharray:none;stroke-linecap:square;fill:none;fill-opacity:1;fill-rule: evenodd"/>
<path id="Sketch003_w0007"  d="M 63.35517471696637 -35.64945701143702 A 1 1 0 0 1 65.3248 -35.9968L 66.27985511104407 -30.580311230611652 L 67.71245257679624 -22.45564726826091 A 1 1 0 1 1 65.7428 -22.1084" stroke="#000000" stroke-width="0.35 px" style="stroke-width:0.35;stroke-miterlimit:4;stroke-dasharray:none;stroke-linecap:square;fill:none;fill-opacity:1;fill-rule: evenodd"/>
<title>b'right'</title>
</g>
<g id="Sketch004" transform="translate(76.134716,45.510997) scale(1,-1)">
<path id="Sketch004_w0000"  d="M -9.0 25.5 L -9.0 -25.5 L 9.0 -25.5 L 9.0 25.5 L -9.0 25.5 " stroke="#000000" stroke-width="0.35 px" style="stroke-width:0.35;stroke-miterlimit:4;stroke-dasharray:none;stroke-linecap:square;fill:none;fill-opacity:1;fill-rule: evenodd"/>
<path id="Sketch004_w0001"  d="M -44.50268154858341 -32.756169855526295 L -48.947624428714 18.049759747152734 L -31.016119863062578 19.618563116610588 L -13.084615297411146 21.187366486068438 L -8.639672417280577 -29.618563116610584 L -44.50268154858341 -32.756169855526295 " stroke="#000000" stroke-width="0.35 px" style="stroke-width:0.35;stroke-miterlimit:4;stroke-dasharray:none;stroke-linecap:square;fill:none;fill-opacity:1;fill-rule: evenodd"/>
<path id="Sketch004_w0002"  d="M 26.571176982931995 -31.187366486068438 L 8.639672417280575 -29.61856311661059 L 13.084615297411148 21.187366486068438 L 31.016119863062567 19.61856311661059 L 26.571176982931995 -31.187366486068438 " stroke="#000000" stroke-width="0.35 px" style="stroke-width:0.35;stroke-miterlimit:4;stroke-dasharray:none;stroke-linecap:square;fill:none;fill-opacity:1;fill-rule: evenodd"/>
<path id="Sketch004_w0003"  d="M 60.3734127874195 -46.80109849881843 L 24.920333678980015 -40.54976410280893 L 36.728409760331296 26.417163102021213 L 72.18148886877078 20.165828706011713 L 60.3734127874195 -46.80109849881843 " stroke="#000000" stroke-width="0.35 px" style="stroke-width:0.35;stroke-miterlimit:4;stroke-dasharray:none;stroke-linecap:square;fill:none;fill-opacity:1;fill-rule: evenodd"/>
<path id="Sketch004_w0004"  d="M -20.44852087864467 -30.846020989393054 L -37.835185751847895 -35.504763801238425 L -33.43526198510505 -51.92550284815259 L -50.43526198510504 -22.480639119481673 L -66.02371925322494 -31.48063911948167 L -49.02371925322495 -60.92550284815258 L -33.43526198510505 -51.92550284815259 L -16.04859711190182 -47.26676003630722 L -16.04859711190182 -30.26676003630722 L 1.9514028880981797 -30.26676003630722 L 1.9514028880981797 -47.26676003630722 L -16.04859711190182 -47.26676003630722 L -20.44852087864467 -30.846020989393054 " stroke="#000000" stroke-width="0.35 px" style="stroke-width:0.35;stroke-miterlimit:4;stroke-dasharray:none;stroke-linecap:square;fill:none;fill-opacity:1;fill-rule: evenodd"/>
<path id="Sketch004_w0005"  d="M 60.19976460975257 -47.785906251830646 L 24.746685501313088 -41.534571855821135 A 1 1 0 0 0 23.9355 -40.3761L 25.187162504775944 -33.277732150978885 A 1 1 0 0 1 24.3234 -32.1114A 201 201 0 0 1 3.97116 -30.6735A 1 1 0 0 1 2.9514 -31.6733L 2.9514028880981797 -47.26676003630722 A 1 1 0 0 0 1.9514 -48.2668L -7.048597111901874 -48.26676003630722 A 67.3618 67.3618 0 0 1 -40.7295 -57.2915L -48.52371925322495 -61.79152825193702 A 1 1 0 0 0 -49.8897 -61.4255L -66.88974465700939 -31.98063911948167 " stroke="#000000" stroke-width="0.35 px" style="stroke-width:0.35;stroke-miterlimit:4;stroke-dasharray:none;stroke-linecap:square;fill:none;fill-opacity:1;fill-rule: evenodd"/>
<title>b'side'</title>
</g>
<g id="Sketch005" transform="translate(76.134716,45.510997) scale(1,-1)">
<path id="Sketch005_w0000"  d="M 9.0 42.5 L 9.0 -25.5 L -9.0 -25.5 L -9.0 42.5 L 9.0 42.5 " stroke="#000000" stroke-width="0.35 px" style="stroke-width:0.35;stroke-miterlimit:4;stroke-dasharray:none;stroke-linecap:square;fill:none;fill-opacity:1;fill-rule: evenodd"/>
<path id="Sketch005_w0001"  d="M -48.94762442871398 18.049759747152745 L -49.29624739970461 22.03453853951973 L -50.429272055424164 34.985069614712415 L -14.566262924121324 38.12267635362811 L -13.084615297411137 21.187366486068434 L -31.016119863062556 19.618563116610588 L -48.94762442871398 18.049759747152745 M -48.94762442871398 18.049759747152745 L -44.502681548583425 -32.75616985552627 L -8.639672417280577 -29.618563116610588 L -13.084615297411137 21.187366486068434 " stroke="#000000" stroke-width="0.35 px" style="stroke-width:0.35;stroke-miterlimit:4;stroke-dasharray:none;stroke-linecap:square;fill:none;fill-opacity:1;fill-rule: evenodd"/>
<path id="Sketch005_w0002"  d="M 13.08461529741114 21.187366486068434 L 8.639672417280575 -29.618563116610588 L 26.57117698293199 -31.187366486068434 L 31.016119863062556 19.618563116610588 L 13.08461529741114 21.187366486068434 M 31.016119863062556 19.618563116610588 L 32.49776748977275 36.55387298417026 L 14.566262924121325 38.12267635362811 L 13.08461529741114 21.187366486068434 " stroke="#000000" stroke-width="0.35 px" style="stroke-width:0.35;stroke-miterlimit:4;stroke-dasharray:none;stroke-linecap:square;fill:none;fill-opacity:1;fill-rule: evenodd"/>
<path id="Sketch005_w0003"  d="M 60.3734127874195 -46.80109849881842 L 24.920333678980015 -40.54976410280892 L 36.72840976033129 26.417163102021217 L 72.18148886877077 20.16582870601172 L 60.3734127874195 -46.80109849881842 " stroke="#000000" stroke-width="0.35 px" style="stroke-width:0.35;stroke-miterlimit:4;stroke-dasharray:none;stroke-linecap:square;fill:none;fill-opacity:1;fill-rule: evenodd"/>
<path id="Sketch005_w0004"  d="M -22.31183480847988 23.39154889561479 A 256 256 0 0 0 31.2638 22.4495A 1 1 0 0 1 32.3471 23.3585L 33.4939621878645 36.46671724142261 A 1 1 0 0 1 32.5849 37.5501L 23.619170949694716 38.33446936699093 A 271 271 0 0 1 -23.6192 38.3345L -50.516427798171826 35.98126431280416 A 1 1 0 0 1 -51.4255 34.8979L -50.11813061230104 19.95499340058858 A 1 1 0 0 0 -51.0272 18.8716L -49.03478017146166 19.04595444524449 " stroke="#000000" stroke-width="0.35 px" style="stroke-width:0.35;stroke-miterlimit:4;stroke-dasharray:none;stroke-linecap:square;fill:none;fill-opacity:1;fill-rule: evenodd"/>
<path id="Sketch005_w0005"  d="M -10.959558763250744 39.14400490184446 A 1 1 0 0 1 -10 40.1432L -9.999999999999998 42.5 A 1 1 0 0 0 -9 43.5L 9.0 43.5 A 1 1 0 0 0 10 42.5L 10.0 39.893382471532625 A 0.74 0.74 0 0 1 10.7108 39.154" stroke="#000000" stroke-width="0.35 px" style="stroke-width:0.35;stroke-miterlimit:4;stroke-dasharray:none;stroke-linecap:square;fill:none;fill-opacity:1;fill-rule: evenodd"/>
<path id="Sketch005_w0006"  d="M 32.844588199870174 29.044338594594617 A 1 1 0 0 1 33.6671 27.9724L 36.902057937998215 27.401970855033426 " stroke="#000000" stroke-width="0.35 px" style="stroke-width:0.35;stroke-miterlimit:4;stroke-dasharray:none;stroke-linecap:square;fill:none;fill-opacity:1;fill-rule: evenodd"/>
<path id="Sketch005_w0007"  d="M -50.29244209779636 21.94738279677207 A 1 1 0 0 1 -49.2091 21.0383" stroke="#000000" stroke-width="0.35 px" style="stroke-width:0.35;stroke-miterlimit:4;stroke-dasharray:none;stroke-linecap:square;fill:none;fill-opacity:1;fill-rule: evenodd"/>
<title>b'outer'</title>
</g>
</svg>